<?xml version="1.0" encoding="utf-8"?>
<!-- Generator: Adobe Illustrator 25.1.0, SVG Export Plug-In . SVG Version: 6.00 Build 0)  -->
<svg version="1.1" id="Capa_1" xmlns="http://www.w3.org/2000/svg" xmlns:xlink="http://www.w3.org/1999/xlink" x="0px" y="0px"
	 viewBox="0 0 762.9 556.6" style="enable-background:new 0 0 762.9 556.6;" xml:space="preserve">
<style type="text/css">
	.st0{fill-rule:evenodd;clip-rule:evenodd;fill:#FD1F4A;}
</style>
<path class="st0" d="M176.4,418.9c0.2,21-16.6,38.2-37.6,38.4c-21,0.2-38.2-16.6-38.4-37.6c-0.2-17.2,11.2-32.4,27.8-37
	c1.7-0.6,3.5-1,5.4-1.2c5-0.6,9.8-1.9,14.4-4c15.1-7.3,25.7-21.5,28.5-38l0,0L176.4,418.9z M121,281.2c14.2-2.2,28.5,2.2,38.9,12.1
	l0.2,0.2c8.2,7.8,13.6,18.1,15.3,29.4c0.5,1.1,0.8,2.3,1,3.6c0.3,1.5,0.5,3,0.5,4.5c0.1,2.7-0.1,5.4-0.5,8v-290
	c0.9-20.9,14.7-39,34.7-45.4c18.5-6,38.9-0.1,52.7,13.6l116.7,116.7l0,0L498.7,15.7c19.8-19.6,51.6-19.6,71.4,0
	c4.3,4.6,7.9,9.9,10.6,15.6c2.5,5.5,3.5,11.6,4,17.6l0,0v362.5c-0.2,1.2-0.4,2.5-0.5,3.7c-2.1,20.9,13.1,39.5,34,41.6
	c3.8,0.4,7.5,0.2,11.2-0.5c15.1-3,27.2-15.1,29.7-29.7c3.6-18.7-7-37.1-25-43.3l0,0l-11.5-2.1l0,0c-27.4-8.2-42.9-37.1-34.7-64.5
	c3.7-12.4,12-23,23.2-29.6c9.4-5.6,20.7-7.2,31.5-5.6l9.9,1.5l8.6,1.7c41.4,11.2,75.8,41.9,92.5,82.2c35.7,98.5-36.2,191-129.7,191
	c-76.9,0-139.3-62.3-139.3-139.2c0,0,0,0,0,0c0-4,0.5-244.6,0.5-244.8l0,0l-65.9,65.8c-10.1,9.8-23.7,15-37.7,14.6
	c-14,0.5-27.7-4.7-37.7-14.6L278,173.5l0,0c0,0.2,0.5,241.3,0.5,244.8c0,76.9-62.3,139.3-139.3,139.3c-3.2,0-6.5-0.1-9.7-0.3
	c-67.9-4.6-123.2-59.1-129-126.9c-5.7-66.1,36.1-127,99.9-145.5c2.8-0.8,5.6-1.4,8.4-1.8L121,281.2z"/>
</svg>
