<?xml version="1.0" encoding="utf-8"?>
<!-- Generator: Adobe Illustrator 25.1.0, SVG Export Plug-In . SVG Version: 6.00 Build 0)  -->
<svg version="1.1" id="Capa_1" xmlns="http://www.w3.org/2000/svg" xmlns:xlink="http://www.w3.org/1999/xlink" x="0px" y="0px"
	 viewBox="0 0 800 800" style="enable-background:new 0 0 800 800;" xml:space="preserve">
<style type="text/css">
	.st0{fill-rule:evenodd;clip-rule:evenodd;fill:#990A08;}
	.st1{fill:#990A08;stroke:#990A08;stroke-width:9;stroke-miterlimit:10;}
</style>
<path class="st0" d="M309.8,43.1c6.3-6.3,14.7-9.8,23.6-9.8H600c55.2,0,100,44.8,100,100v133.3c0,18.4-14.9,33.3-33.3,33.3
	s-33.3-14.9-33.3-33.3V133.3c0-18.4-14.9-33.3-33.3-33.3H366.7v166.7c0,18.4-14.9,33.3-33.3,33.3H166.7v366.7
	c0,18.4,14.9,33.3,33.3,33.3h66.7c18.4,0,33.3,14.9,33.3,33.3s-14.9,33.3-33.3,33.3H200c-55.2,0-100-44.8-100-100v-400
	c0-8.8,3.5-17.3,9.8-23.6L309.8,43.1z M213.8,233.3H300v-86.2L213.8,233.3z"/>
<g>
	<g>
		<path class="st1" d="M283.9,439.8v116.1c0,15.1,16.6,24.4,29.5,16.5c2.8-1.7,9-4.8,17.8-7.9c10.3-3.7,21.4-6.3,33.1-7.6
			c-2,5.8-3,12-3,18.4c0,32,26.1,58.1,58.1,58.1h96.8c32,0,58.1-26.1,58.1-58.1c0-4.2-0.4-8.2-1.3-12.1c5.5,1.1,11.5,2.4,19.1,4
			c2.4,0.5,5.7,1.2,11.3,2.5c4.5,1,7.9,1.7,11.1,2.4c8.3,1.8,16.5,4.5,24.5,8l68.8,30.8c14.4,6.9,27.7,0.1,34.7-12
			c3.9-6.8,6.1-15.6,6.1-23.6V420.5c0-8-2.1-16.8-6.1-23.6c-7-12.2-20.3-18.9-34.2-12.2l-81.7,36.6c-8.4,1.6-14.8,3.1-33.3,7.4
			c-11.2,2.6-17.6,4.1-24.6,5.5c-18.6,3.8-33.2,5.7-46.4,5.7H380.7c-17.8,0-34.4-3.2-49.5-8.6c-8.8-3.1-15-6.2-17.8-7.9
			C300.5,415.4,283.9,424.7,283.9,439.8z M400,575.3c0-10.6,8.8-19.4,19.4-19.4h96.8c10.6,0,19.4,8.8,19.4,19.4
			c0,10.6-8.8,19.4-19.4,19.4h-96.8C408.8,594.7,400,585.9,400,575.3z M322.6,469.2c17.8,5.9,37.3,9.3,58.1,9.3h141.5
			c16.2,0,33.2-2.2,54.1-6.5c7.4-1.5,14.1-3,25.6-5.7c19.6-4.6,25.1-5.8,34-7.5c1.5-0.3,2.9-0.7,4.3-1.3l69.5-31.1v143.1l-55-24.6
			c-10.5-4.7-21.3-8.2-32.3-10.6c-3.2-0.7-6.5-1.4-10.9-2.3c-5.6-1.2-8.9-1.9-11.3-2.5c-9.7-2.1-16.9-3.6-24-5
			c-24-4.7-43-7.1-60.1-7.1h-96.8h-38.7c-20.8,0-40.2,3.5-58.1,9.3V469.2z"/>
	</g>
</g>
</svg>
