<?xml version="1.0" encoding="utf-8"?>
<!-- Generator: Adobe Illustrator 25.1.0, SVG Export Plug-In . SVG Version: 6.00 Build 0)  -->
<svg version="1.1" id="Capa_1" xmlns="http://www.w3.org/2000/svg" xmlns:xlink="http://www.w3.org/1999/xlink" x="0px" y="0px"
	 viewBox="0 0 686.3 703.3" style="enable-background:new 0 0 686.3 703.3;" xml:space="preserve">
<style type="text/css">
	.st0{fill-rule:evenodd;clip-rule:evenodd;fill:#37E700;}
	.st1{fill-rule:evenodd;clip-rule:evenodd;fill:#FFFFFF;}
	.st2{display:none;fill:none;}
</style>
<path class="st0" d="M534.1,699.1H152.2C68.1,699.1,0,631.8,0,548.7V154.6C0,71.5,68.1,4.2,152.2,4.2h381.9
	c84.1,0,152.2,67.3,152.2,150.4v394.1C686.3,631.8,618.2,699.1,534.1,699.1z"/>
<path class="st1" d="M446.4,396.6c-5.6-2.8-33.1-16.3-38.3-18.2c-5.1-1.9-8.8-2.8-12.6,2.8c-3.7,5.6-14.4,18.2-17.8,21.9
	c-3.3,3.7-6.5,4.2-12.1,1.4s-23.7-8.8-45.1-27.8c-16.7-14.9-27.9-33.2-31.1-38.8c-3.3-5.6-0.4-8.7,2.4-11.5c2.5-2.5,5.6-6.5,8.4-9.8
	c2.8-3.3,3.7-5.6,5.6-9.4c1.9-3.7,0.9-7-0.5-9.8c-1.4-2.8-12.6-30.3-17.2-41.6c-4.5-10.9-9.2-9.5-12.6-9.7c-3.3-0.2-7-0.2-10.7-0.2
	s-9.8,1.4-15,7c-5.1,5.6-19.6,19.1-19.6,46.8c0,27.5,20,54.3,22.8,58c2.8,3.7,39.5,60.3,95.7,84.6c13.4,5.8,23.8,9.2,32,11.8
	c13.5,4.2,25.6,3.7,35.3,2.3c10.7-1.6,33.1-13.5,37.8-26.6c4.7-13.1,4.7-24.3,3.3-26.6C455.7,400.8,452,399.4,446.4,396.6
	 M344.1,536.2L344.1,536.2c-33.5,0-66.4-9-95-26l-6.8-4.1l-70.5,18.5l18.9-68.8l-4.4-7c-18.7-29.7-28.5-64-28.5-99.2
	c0-102.7,83.7-186.4,186.5-186.4c49.8,0,96.6,19.4,131.8,54.6s54.5,82.1,54.5,131.8C530.5,452.5,446.8,536.2,344.1,536.2
	 M502.7,191.2c-42.3-42.3-98.6-65.7-158.6-65.7c-123.6,0-224.3,100.6-224.3,224.2c0,39.5,10.3,78.1,30,112.1l-31.9,116.1l118.9-31.1
	C269.6,564.6,306.4,574,344,574h0.1c123.6,0,224.3-100.6,224.3-224.2C568.5,289.8,545.2,233.5,502.7,191.2"/>
<path class="st2" d="M-249.1,849.9"/>
</svg>
