<svg id="Capa_1" data-name="Capa 1" xmlns="http://www.w3.org/2000/svg" xmlns:xlink="http://www.w3.org/1999/xlink" viewBox="0 0 762.86 556.61"><defs><style>.cls-1{fill-rule:evenodd;fill:url(#Degradado_sin_nombre_4);}</style><linearGradient id="Degradado_sin_nombre_4" x1="12.79" y1="304.62" x2="775.64" y2="304.62" gradientUnits="userSpaceOnUse"><stop offset="0" stop-color="red"/><stop offset="1" stop-color="#efb810"/></linearGradient></defs><path class="cls-1" d="M189.23,444.18A38,38,0,1,1,141,408a28.77,28.77,0,0,1,5.36-1.24,47.19,47.19,0,0,0,14.41-4,51.64,51.64,0,0,0,28.49-38h0ZM133.77,306.5a46.07,46.07,0,0,1,38.94,12.08l.23.22a51.13,51.13,0,0,1,15.29,29.36,16.34,16.34,0,0,1,1,3.57,20.17,20.17,0,0,1,.5,4.48,43.44,43.44,0,0,1-.5,8V74.19a49.93,49.93,0,0,1,34.69-45.42c18.52-6,38.9-.13,52.67,13.64L393.32,159.15h0L511.46,41a50.66,50.66,0,0,1,71.38,0A60.62,60.62,0,0,1,593.4,56.6c2.51,5.53,3.52,11.56,4,17.59h0V436.64c-.2,1.2-.4,2.46-.5,3.67a38,38,0,0,0,45.24,41.07c15.08-3,27.15-15.08,29.66-29.66a38.13,38.13,0,0,0-25-43.33h0l-11.46-2.07h0a51.8,51.8,0,0,1-11.49-94.17c9.41-5.58,20.67-7.2,31.5-5.6l9.93,1.47,8.56,1.71c41.4,11.25,75.82,41.92,92.51,82.17,35.69,98.53-36.2,191-129.7,191A139.24,139.24,0,0,1,497.38,443.67c0-4,.51-244.64.51-244.81h0L432,264.71a51.78,51.78,0,0,1-37.7,14.58,51,51,0,0,1-37.7-14.58l-65.85-65.85h0c0,.17.5,241.3.5,244.81a139.26,139.26,0,0,1-149,138.92C74.36,578,19,523.52,13.29,455.71a139,139,0,0,1,99.89-145.47,68.94,68.94,0,0,1,8.42-1.81Z" transform="translate(-12.79 -26.31)"/></svg>