<svg id="Capa_1" data-name="Capa 1" xmlns="http://www.w3.org/2000/svg" xmlns:xlink="http://www.w3.org/1999/xlink" viewBox="0 0 580.54 567.42"><defs><style>.cls-1,.cls-2{fill-rule:evenodd;}.cls-2{fill:url(#Degradado_sin_nombre_4);}</style><linearGradient id="Degradado_sin_nombre_4" x1="132.73" y1="301.6" x2="482.48" y2="301.6" gradientUnits="userSpaceOnUse"><stop offset="0" stop-color="red"/><stop offset="1" stop-color="#efb810"/></linearGradient></defs><path class="cls-1" d="M134.94,154.82l86.52-95.31c74.56-82.14,217.87-45.68,258,65.62l46.51,129.14,60.53,168.09c32.42,90-49,179.65-141.67,156.07l-173.15-44-133-33.83C24,471.38-26.14,332.26,48.42,250.12Z" transform="translate(-13.16 -14.83)"/><path class="cls-2" d="M213.63,365.58A17.42,17.42,0,1,1,191.5,349a12.92,12.92,0,0,1,2.46-.57,21.58,21.58,0,0,0,6.61-1.82,23.68,23.68,0,0,0,13.06-17.42h0ZM188.2,302.46A21.12,21.12,0,0,1,206.05,308l.11.1a23.51,23.51,0,0,1,7,13.46,8.41,8.41,0,0,1,.46,1.64,9.27,9.27,0,0,1,.23,2.05,19.89,19.89,0,0,1-.23,3.69V196a22.88,22.88,0,0,1,15.9-20.83c8.49-2.77,17.83-.06,24.15,6.26l53.52,53.52h0l54.16-54.16a23.22,23.22,0,0,1,32.72,0,27.74,27.74,0,0,1,4.84,7.14,24,24,0,0,1,1.85,8.07h0V362.13c-.09.55-.19,1.13-.23,1.68a16.67,16.67,0,0,0,0,3.46,17.51,17.51,0,0,0,20.74,15.37,17.23,17.23,0,0,0,13.6-13.6,17.5,17.5,0,0,0-11.48-19.87h0l-5.25-.94h0a23.75,23.75,0,0,1-5.27-43.18,21.94,21.94,0,0,1,14.44-2.56l4.55.67,3.93.79a64.7,64.7,0,0,1,42.41,37.66c16.36,45.18-16.6,87.58-59.47,87.58a63.84,63.84,0,0,1-63.84-63.84c0-1.84.24-112.16.24-112.24h0l-30.19,30.19A23.76,23.76,0,0,1,307.66,290a23.43,23.43,0,0,1-17.29-6.68l-30.19-30.19h0c0,.08.23,110.63.23,112.24a63.84,63.84,0,1,1-81.65-61.17,30.15,30.15,0,0,1,3.86-.83Z" transform="translate(-13.16 -14.83)"/></svg>