<svg id="Capa_1" data-name="Capa 1" xmlns="http://www.w3.org/2000/svg" xmlns:xlink="http://www.w3.org/1999/xlink" viewBox="0 0 724.01 711.45"><defs><style>.cls-1,.cls-2{fill-rule:evenodd;}.cls-1{fill:url(#Degradado_sin_nombre_4);}.cls-2{fill:url(#Degradado_sin_nombre_4-2);}</style><linearGradient id="Degradado_sin_nombre_4" x1="32.21" y1="365.95" x2="756.22" y2="365.95" gradientUnits="userSpaceOnUse"><stop offset="0" stop-color="red"/><stop offset="1" stop-color="#efb810"/></linearGradient><linearGradient id="Degradado_sin_nombre_4-2" x1="220.99" y1="285.23" x2="567.44" y2="285.23" xlink:href="#Degradado_sin_nombre_4"/></defs><path class="cls-1" d="M466.76,684.07h0C538.23,582.74,668.63,390,726,255.82c16-37.34,26.13-70.4,29.33-96.53,2.67-23.2-.53-42.14-7.73-56-10.67-20-34.4-38.94-69.6-53.07-65.33-26.13-174.66-40-283.73-40-109.33,0-218.39,13.6-283.72,40C75.31,64.35,51.58,83,40.91,103.29c-7.47,13.86-10.4,32.8-7.73,56,2.93,26.13,13.33,59.19,29.06,96.53C119.57,390,249.7,582.74,321.43,684.07h0a89,89,0,0,0,145.33,0Zm-48.53-34.4a29.75,29.75,0,0,1-48.53,0c-69.86-98.66-197.33-286.39-253.06-417-11.2-26.14-19.47-49.87-23.2-69.6-2.67-13.33-4.27-24.27-.27-31.47,3.2-6.13,10.14-10.93,18.67-16,12.53-7.2,28.53-13.33,47.2-18.66C220.37,79,307.3,70.22,394,70.22c86.93,0,173.59,8.8,234.92,26.67,18.67,5.33,34.67,11.46,47.2,18.66,8.53,5.07,15.47,9.87,18.67,16,4,7.47,2.13,18.14-.27,31.47-3.73,20-12,43.46-23.2,69.6C615.56,363.28,488.1,551,418.23,649.67Z" transform="translate(-32.21 -10.22)"/><path class="cls-2" d="M301.12,348.61a17.25,17.25,0,1,1-21.92-16.44,13.52,13.52,0,0,1,2.44-.57,21.19,21.19,0,0,0,6.54-1.79,23.48,23.48,0,0,0,12.94-17.27h0Zm-25.19-62.53a20.93,20.93,0,0,1,17.69,5.49l.1.1A23.16,23.16,0,0,1,300.66,305a7,7,0,0,1,.46,1.62,9.16,9.16,0,0,1,.23,2,19.52,19.52,0,0,1-.23,3.66V180.58A22.66,22.66,0,0,1,316.88,160c8.41-2.74,17.66-.06,23.91,6.19l53,53h0l53.65-53.65a23,23,0,0,1,32.42,0,27.79,27.79,0,0,1,4.8,7.08,24,24,0,0,1,1.82,8h0v164.6c-.09.55-.18,1.12-.23,1.67a17.76,17.76,0,0,0,0,3.42,17.34,17.34,0,0,0,20.55,15.23A17.06,17.06,0,0,0,520.29,352a17.32,17.32,0,0,0-11.37-19.68h0l-5.2-.93h0a23.52,23.52,0,0,1-5.22-42.77,21.78,21.78,0,0,1,14.3-2.55l4.51.67,3.89.78a64.08,64.08,0,0,1,42,37.31c16.21,44.75-16.44,86.76-58.9,86.76a63.24,63.24,0,0,1-63.24-63.24c0-1.83.23-111.11.23-111.18h0l-29.91,29.9a23.52,23.52,0,0,1-17.12,6.62,23.15,23.15,0,0,1-17.12-6.62l-29.91-29.9h0c0,.07.23,109.58.23,111.18a63.24,63.24,0,1,1-80.89-60.6,31.06,31.06,0,0,1,3.83-.82Z" transform="translate(-32.21 -10.22)"/></svg>