<?xml version="1.0" encoding="utf-8"?>
<!-- Generator: Adobe Illustrator 25.1.0, SVG Export Plug-In . SVG Version: 6.00 Build 0)  -->
<svg version="1.1" id="Capa_1" xmlns="http://www.w3.org/2000/svg" xmlns:xlink="http://www.w3.org/1999/xlink" x="0px" y="0px"
	 viewBox="0 0 342.7 201.3" style="enable-background:new 0 0 342.7 201.3;" xml:space="preserve">
<style type="text/css">
	.st0{fill:#FFFFFF;stroke:#FFFFFF;stroke-width:13;stroke-miterlimit:10;}
	.st1{fill:#FFFFFF;stroke:#FFFFFF;stroke-width:0.5;stroke-miterlimit:10;}
	.st2{fill:#FFFFFF;stroke:#FFFFFF;stroke-width:2;stroke-miterlimit:10;}
	.st3{fill:#FD1F4A;}
	.st4{fill:#F2EFDC;}
	.st5{fill:#663F30;}
	.st6{fill:#F7C63B;}
	.st7{fill:#E20A3D;}
	.st8{fill:#DC4437;}
	.st9{fill:#109D59;}
	.st10{fill:#C43D31;}
	.st11{fill:#DAD8C6;}
	.st12{fill:#4E3025;}
	.st13{fill:#DFB335;}
	.st14{fill:#D1053F;}
	.st15{fill:#0E854C;}
</style>
<image style="display:none;overflow:visible;opacity:0.53;" width="500" height="500" xlink:href="../Downloads/Yellow Minimalist Round Shaped Cafe Logo/16.png"  transform="matrix(0.6244 0 0 0.6244 21.6189 -20.9333)">
</image>
<g>
	<path class="st0" d="M226.8,109.2V28.4h-13.5c-16.5,34.2-40,85.5-42.7,93h-0.3c-4.4-11.6-24.7-57.7-40.9-93h-13.6v102.8h9.1V87.5
		c0-17.6-0.3-41.6-1.2-53.3h0.3c5.4,15.6,30.1,72,41.4,97.1h8.9c15-32.5,38.9-83.2,43.6-97h0.5c-0.5,10.3-0.7,29.5-0.7,49.7v25.2"/>
</g>
<image style="display:none;overflow:visible;" width="378" height="980" xlink:href="treble-clef-music-note-free-vector.jpg"  transform="matrix(9.594250e-02 0 0 9.594250e-02 369.9214 68.9587)">
</image>
<g>
	<path class="st1" d="M21.6,168.7c0,1-0.2,1.9-0.6,2.7s-0.9,1.4-1.5,1.9c-0.6,0.5-1.4,0.9-2.3,1.2c-0.9,0.3-1.8,0.4-2.8,0.4
		c-0.7,0-1.3-0.1-1.9-0.2s-1.1-0.2-1.5-0.4c-0.4-0.2-0.8-0.3-1.1-0.5c-0.3-0.2-0.5-0.3-0.6-0.4c-0.1-0.1-0.2-0.3-0.3-0.6
		c-0.1-0.2-0.1-0.6-0.1-1c0-0.3,0-0.6,0-0.8c0-0.2,0.1-0.4,0.1-0.5c0-0.1,0.1-0.2,0.2-0.3c0.1-0.1,0.2-0.1,0.3-0.1
		c0.1,0,0.3,0.1,0.6,0.2c0.3,0.2,0.6,0.3,1,0.5c0.4,0.2,0.9,0.4,1.4,0.5c0.6,0.2,1.2,0.2,1.9,0.2c0.5,0,0.9-0.1,1.3-0.2
		c0.4-0.1,0.7-0.3,1-0.5c0.3-0.2,0.5-0.5,0.6-0.8c0.1-0.3,0.2-0.6,0.2-1c0-0.4-0.1-0.8-0.4-1.1s-0.5-0.6-0.9-0.8
		c-0.4-0.2-0.8-0.5-1.3-0.7c-0.5-0.2-1-0.4-1.5-0.7s-1-0.5-1.5-0.8s-0.9-0.7-1.3-1.1c-0.4-0.4-0.7-0.9-0.9-1.5
		c-0.2-0.6-0.4-1.3-0.4-2.1c0-0.9,0.2-1.7,0.5-2.4s0.8-1.3,1.4-1.7c0.6-0.5,1.3-0.8,2.1-1c0.8-0.2,1.6-0.3,2.5-0.3
		c0.5,0,0.9,0,1.4,0.1c0.5,0.1,0.9,0.2,1.3,0.3c0.4,0.1,0.7,0.3,1.1,0.4c0.3,0.1,0.5,0.3,0.6,0.4s0.2,0.2,0.2,0.3
		c0,0.1,0.1,0.2,0.1,0.3c0,0.1,0,0.3,0.1,0.4c0,0.2,0,0.4,0,0.6c0,0.3,0,0.5,0,0.7s0,0.4-0.1,0.5c0,0.1-0.1,0.2-0.1,0.3
		c-0.1,0.1-0.2,0.1-0.3,0.1c-0.1,0-0.3-0.1-0.5-0.2c-0.2-0.1-0.5-0.3-0.9-0.5c-0.3-0.2-0.7-0.3-1.2-0.4c-0.5-0.1-1-0.2-1.5-0.2
		c-0.4,0-0.8,0.1-1.1,0.2c-0.3,0.1-0.6,0.2-0.8,0.4c-0.2,0.2-0.4,0.4-0.5,0.7s-0.2,0.5-0.2,0.8c0,0.4,0.1,0.8,0.3,1.1
		c0.2,0.3,0.5,0.6,0.9,0.8c0.4,0.2,0.8,0.5,1.3,0.7c0.5,0.2,1,0.4,1.5,0.7s1,0.5,1.5,0.8c0.5,0.3,0.9,0.7,1.3,1.1
		c0.4,0.4,0.7,0.9,0.9,1.5S21.6,167.9,21.6,168.7z"/>
	<path class="st1" d="M47.7,173.9c0,0.1,0,0.2-0.1,0.3c-0.1,0.1-0.2,0.1-0.3,0.2c-0.1,0-0.3,0.1-0.6,0.1c-0.2,0-0.6,0-0.9,0
		c-0.4,0-0.7,0-1,0c-0.3,0-0.5-0.1-0.6-0.1s-0.2-0.1-0.3-0.2c-0.1-0.1-0.1-0.2-0.1-0.3v-7.8h-7.2v7.8c0,0.1,0,0.2-0.1,0.3
		c-0.1,0.1-0.2,0.1-0.3,0.2c-0.1,0-0.3,0.1-0.6,0.1c-0.2,0-0.6,0-1,0c-0.4,0-0.7,0-0.9,0c-0.3,0-0.5-0.1-0.6-0.1
		c-0.1,0-0.3-0.1-0.3-0.2c-0.1-0.1-0.1-0.2-0.1-0.3v-18.2c0-0.1,0-0.2,0.1-0.3c0.1-0.1,0.2-0.1,0.3-0.2c0.1,0,0.3-0.1,0.6-0.1
		c0.3,0,0.6,0,0.9,0c0.4,0,0.7,0,1,0c0.2,0,0.4,0.1,0.6,0.1c0.1,0,0.3,0.1,0.3,0.2c0.1,0.1,0.1,0.2,0.1,0.3v7.1h7.2v-7.1
		c0-0.1,0-0.2,0.1-0.3c0.1-0.1,0.2-0.1,0.3-0.2c0.1,0,0.3-0.1,0.6-0.1c0.3,0,0.6,0,1,0c0.4,0,0.7,0,0.9,0c0.2,0,0.4,0.1,0.6,0.1
		c0.1,0,0.3,0.1,0.3,0.2c0.1,0.1,0.1,0.2,0.1,0.3V173.9z"/>
	<path class="st1" d="M77.3,164.6c0,1.6-0.2,3-0.6,4.3c-0.4,1.3-1,2.3-1.8,3.2c-0.8,0.9-1.8,1.5-2.9,2c-1.2,0.5-2.5,0.7-4,0.7
		c-1.5,0-2.8-0.2-3.9-0.6c-1.1-0.4-2-1-2.8-1.8c-0.7-0.8-1.3-1.8-1.7-3.1c-0.4-1.2-0.6-2.7-0.6-4.4c0-1.6,0.2-3,0.6-4.2
		s1-2.3,1.8-3.2s1.8-1.5,2.9-2c1.2-0.5,2.5-0.7,4-0.7c1.5,0,2.7,0.2,3.9,0.6c1.1,0.4,2,1,2.8,1.8c0.7,0.8,1.3,1.8,1.7,3
		C77.1,161.5,77.3,163,77.3,164.6z M73.2,164.8c0-1-0.1-1.9-0.2-2.8c-0.2-0.8-0.4-1.5-0.8-2.1c-0.4-0.6-0.9-1-1.5-1.4
		c-0.6-0.3-1.4-0.5-2.4-0.5c-1,0-1.8,0.2-2.4,0.5c-0.6,0.4-1.2,0.8-1.6,1.4c-0.4,0.6-0.7,1.3-0.8,2.1c-0.2,0.8-0.2,1.7-0.2,2.6
		c0,1.1,0.1,2,0.2,2.8c0.2,0.8,0.4,1.6,0.8,2.1c0.4,0.6,0.9,1,1.5,1.4c0.6,0.3,1.4,0.5,2.4,0.5c1,0,1.8-0.2,2.4-0.5
		c0.6-0.4,1.2-0.8,1.6-1.5c0.4-0.6,0.7-1.3,0.8-2.1C73.1,166.6,73.2,165.7,73.2,164.8z"/>
	<path class="st1" d="M108.5,173.5c-0.1,0.2-0.1,0.4-0.2,0.6c-0.1,0.1-0.3,0.3-0.5,0.3c-0.2,0.1-0.5,0.1-0.8,0.1c-0.3,0-0.7,0-1.2,0
		c-0.6,0-1,0-1.4,0c-0.3,0-0.6-0.1-0.8-0.1s-0.3-0.2-0.4-0.3c-0.1-0.1-0.2-0.3-0.2-0.6l-3.1-12.2h0l-2.9,12.2c0,0.2-0.1,0.4-0.2,0.6
		c-0.1,0.1-0.2,0.3-0.4,0.3c-0.2,0.1-0.5,0.1-0.8,0.2c-0.3,0-0.8,0-1.3,0c-0.6,0-1,0-1.4,0c-0.3,0-0.6-0.1-0.8-0.1s-0.3-0.2-0.4-0.3
		c-0.1-0.1-0.2-0.3-0.2-0.6L87,156.7c-0.1-0.4-0.1-0.6-0.1-0.8c0-0.2,0-0.4,0.2-0.5c0.1-0.1,0.3-0.2,0.6-0.2c0.3,0,0.7,0,1.2,0
		c0.5,0,0.8,0,1.1,0c0.3,0,0.5,0,0.6,0.1c0.1,0.1,0.2,0.1,0.3,0.2c0,0.1,0.1,0.3,0.1,0.4l3.4,14.7h0l3.5-14.6c0-0.2,0.1-0.3,0.2-0.5
		c0.1-0.1,0.2-0.2,0.3-0.3c0.2-0.1,0.4-0.1,0.6-0.1s0.6,0,1.1,0c0.5,0,0.9,0,1.1,0c0.3,0,0.5,0.1,0.7,0.1c0.2,0.1,0.3,0.2,0.3,0.3
		c0.1,0.1,0.1,0.3,0.2,0.5l3.6,14.6h0l3.4-14.7c0-0.2,0.1-0.3,0.1-0.4c0-0.1,0.1-0.2,0.3-0.3c0.1-0.1,0.3-0.1,0.6-0.1
		c0.3,0,0.6,0,1.1,0c0.4,0,0.8,0,1,0c0.2,0,0.4,0.1,0.5,0.2s0.2,0.3,0.1,0.5c0,0.2-0.1,0.5-0.2,0.9L108.5,173.5z"/>
	<path class="st1" d="M161.3,173.9c0,0.1,0,0.2-0.1,0.3c-0.1,0.1-0.2,0.1-0.3,0.2s-0.3,0.1-0.6,0.1s-0.5,0-0.9,0c-0.4,0-0.7,0-0.9,0
		c-0.2,0-0.4-0.1-0.6-0.1c-0.1,0-0.2-0.1-0.3-0.2c-0.1-0.1-0.1-0.2-0.1-0.3v-15.7h0l-5.6,15.6c0,0.1-0.1,0.2-0.2,0.3
		c-0.1,0.1-0.2,0.2-0.4,0.2c-0.2,0-0.3,0.1-0.6,0.1s-0.5,0-0.9,0s-0.6,0-0.9,0c-0.2,0-0.4-0.1-0.6-0.1c-0.2-0.1-0.3-0.1-0.4-0.2
		c-0.1-0.1-0.1-0.2-0.2-0.3l-5.4-15.6h0v15.7c0,0.1,0,0.2-0.1,0.3c-0.1,0.1-0.2,0.1-0.3,0.2s-0.3,0.1-0.6,0.1c-0.2,0-0.5,0-0.9,0
		c-0.4,0-0.7,0-0.9,0s-0.4-0.1-0.6-0.1s-0.2-0.1-0.3-0.2c-0.1-0.1-0.1-0.2-0.1-0.3v-17.1c0-0.5,0.1-0.9,0.4-1.2s0.6-0.4,1.1-0.4h2.6
		c0.5,0,0.8,0,1.2,0.1c0.3,0.1,0.6,0.2,0.8,0.4s0.4,0.4,0.6,0.7c0.2,0.3,0.3,0.6,0.4,1l4.2,11.5h0.1l4.3-11.4
		c0.1-0.4,0.3-0.8,0.4-1.1s0.3-0.5,0.5-0.7s0.4-0.3,0.7-0.4c0.3-0.1,0.6-0.1,1-0.1h2.6c0.3,0,0.5,0,0.7,0.1c0.2,0.1,0.4,0.2,0.5,0.3
		s0.2,0.3,0.3,0.5s0.1,0.4,0.1,0.7V173.9z"/>
	<path class="st1" d="M184.9,172.9c0,0.3,0,0.5,0,0.7c0,0.2-0.1,0.3-0.1,0.5c0,0.1-0.1,0.2-0.2,0.3c-0.1,0.1-0.2,0.1-0.2,0.1h-9.7
		c-0.3,0-0.6-0.1-0.8-0.3c-0.2-0.2-0.3-0.5-0.3-0.9v-16.8c0-0.4,0.1-0.8,0.3-0.9c0.2-0.2,0.5-0.3,0.8-0.3h9.6c0.1,0,0.2,0,0.2,0.1
		c0.1,0,0.1,0.1,0.2,0.3c0,0.1,0.1,0.3,0.1,0.5c0,0.2,0,0.4,0,0.7c0,0.3,0,0.5,0,0.7c0,0.2-0.1,0.3-0.1,0.5c0,0.1-0.1,0.2-0.2,0.3
		c-0.1,0.1-0.1,0.1-0.2,0.1h-6.9v4.7h5.8c0.1,0,0.2,0,0.2,0.1c0.1,0.1,0.1,0.1,0.2,0.3c0,0.1,0.1,0.3,0.1,0.5c0,0.2,0,0.4,0,0.7
		c0,0.3,0,0.5,0,0.7c0,0.2-0.1,0.3-0.1,0.5c0,0.1-0.1,0.2-0.2,0.2c-0.1,0-0.2,0.1-0.2,0.1h-5.8v5.4h6.9c0.1,0,0.2,0,0.2,0.1
		s0.1,0.1,0.2,0.3c0,0.1,0.1,0.3,0.1,0.5C184.9,172.4,184.9,172.6,184.9,172.9z"/>
	<path class="st1" d="M210.2,173c0.2,0.3,0.3,0.6,0.3,0.8c0.1,0.2,0,0.4-0.1,0.5c-0.1,0.1-0.3,0.2-0.6,0.2c-0.3,0-0.7,0-1.3,0
		c-0.5,0-0.8,0-1.1,0c-0.3,0-0.5-0.1-0.6-0.1c-0.2,0-0.3-0.1-0.3-0.2c-0.1-0.1-0.1-0.2-0.2-0.3l-3.6-6.9l-3.6,6.9
		c-0.1,0.1-0.1,0.2-0.2,0.3c-0.1,0.1-0.2,0.1-0.3,0.2c-0.2,0-0.4,0.1-0.6,0.1c-0.3,0-0.6,0-1.1,0c-0.5,0-0.9,0-1.2,0
		c-0.3,0-0.5-0.1-0.6-0.2c-0.1-0.1-0.1-0.3-0.1-0.5c0.1-0.2,0.2-0.5,0.4-0.8l4.6-8.4l-4.3-7.9c-0.2-0.4-0.3-0.6-0.4-0.9
		c-0.1-0.2,0-0.4,0.1-0.5c0.1-0.1,0.3-0.2,0.6-0.2c0.3,0,0.7,0,1.3,0c0.5,0,0.8,0,1.1,0c0.3,0,0.5,0.1,0.6,0.1
		c0.2,0,0.3,0.1,0.3,0.2c0.1,0.1,0.1,0.2,0.2,0.3l3.4,6.4l3.3-6.4c0.1-0.1,0.1-0.2,0.2-0.3c0.1-0.1,0.2-0.1,0.3-0.2
		c0.1,0,0.3-0.1,0.6-0.1c0.3,0,0.6,0,1,0c0.5,0,0.9,0,1.2,0s0.5,0.1,0.6,0.2s0.1,0.3,0.1,0.5c-0.1,0.2-0.2,0.5-0.3,0.8l-4.3,7.8
		L210.2,173z"/>
	<path class="st1" d="M225.2,173.9c0,0.1,0,0.2-0.1,0.3c-0.1,0.1-0.2,0.1-0.3,0.2c-0.1,0-0.3,0.1-0.6,0.1c-0.2,0-0.6,0-1,0
		c-0.4,0-0.7,0-0.9,0c-0.3,0-0.5-0.1-0.6-0.1c-0.1,0-0.3-0.1-0.3-0.2c-0.1-0.1-0.1-0.2-0.1-0.3v-18.2c0-0.1,0-0.2,0.1-0.3
		c0.1-0.1,0.2-0.1,0.3-0.2c0.2,0,0.4-0.1,0.6-0.1c0.2,0,0.6,0,0.9,0c0.4,0,0.7,0,1,0c0.2,0,0.4,0.1,0.6,0.1c0.1,0,0.3,0.1,0.3,0.2
		c0.1,0.1,0.1,0.2,0.1,0.3V173.9z"/>
	<path class="st1" d="M250.8,171.5c0,0.2,0,0.5,0,0.6c0,0.2,0,0.3-0.1,0.4s-0.1,0.2-0.1,0.3c0,0.1-0.1,0.2-0.2,0.3
		c-0.1,0.1-0.3,0.3-0.6,0.4c-0.3,0.2-0.7,0.3-1.1,0.5c-0.5,0.2-1,0.3-1.5,0.4c-0.6,0.1-1.2,0.2-1.9,0.2c-1.3,0-2.5-0.2-3.6-0.6
		s-2-1-2.7-1.8s-1.3-1.8-1.7-3c-0.4-1.2-0.6-2.6-0.6-4.2c0-1.6,0.2-3.1,0.7-4.4c0.4-1.3,1-2.3,1.8-3.2c0.8-0.9,1.7-1.5,2.8-2
		c1.1-0.4,2.3-0.7,3.6-0.7c0.5,0,1.1,0,1.5,0.1s1,0.2,1.4,0.3c0.4,0.1,0.8,0.3,1.1,0.5c0.3,0.2,0.6,0.3,0.7,0.5s0.2,0.2,0.3,0.3
		c0,0.1,0.1,0.2,0.1,0.3c0,0.1,0.1,0.3,0.1,0.5c0,0.2,0,0.4,0,0.7c0,0.3,0,0.5,0,0.8s-0.1,0.4-0.1,0.5c0,0.1-0.1,0.2-0.2,0.3
		s-0.1,0.1-0.2,0.1c-0.1,0-0.3-0.1-0.6-0.3c-0.2-0.2-0.5-0.4-0.9-0.6c-0.4-0.2-0.8-0.4-1.3-0.6c-0.5-0.2-1.1-0.3-1.8-0.3
		c-0.8,0-1.4,0.2-2,0.5c-0.6,0.3-1.1,0.8-1.5,1.3c-0.4,0.6-0.7,1.3-1,2.1c-0.2,0.8-0.3,1.7-0.3,2.8c0,1.1,0.1,2.1,0.3,2.9
		c0.2,0.8,0.6,1.5,1,2c0.4,0.5,1,0.9,1.6,1.2c0.6,0.3,1.3,0.4,2.1,0.4c0.7,0,1.3-0.1,1.8-0.2s0.9-0.3,1.3-0.5s0.7-0.4,0.9-0.5
		c0.2-0.2,0.4-0.2,0.5-0.2c0.1,0,0.2,0,0.2,0.1c0.1,0,0.1,0.1,0.1,0.2c0,0.1,0.1,0.3,0.1,0.5C250.8,170.9,250.8,171.2,250.8,171.5z"
		/>
	<path class="st1" d="M277.4,173c0.1,0.4,0.2,0.6,0.2,0.8s0,0.4-0.1,0.5c-0.1,0.1-0.3,0.2-0.6,0.2c-0.3,0-0.7,0-1.1,0
		c-0.5,0-0.9,0-1.2,0c-0.3,0-0.5,0-0.6-0.1c-0.1,0-0.3-0.1-0.3-0.2s-0.1-0.2-0.1-0.3l-1.3-3.9H265l-1.2,3.8c0,0.1-0.1,0.3-0.2,0.3
		s-0.2,0.2-0.3,0.2c-0.1,0.1-0.3,0.1-0.6,0.1c-0.3,0-0.6,0-1,0c-0.5,0-0.8,0-1.1,0c-0.3,0-0.4-0.1-0.5-0.2c-0.1-0.1-0.1-0.3-0.1-0.5
		c0-0.2,0.1-0.5,0.2-0.8l5.9-17.1c0.1-0.2,0.1-0.3,0.2-0.4c0.1-0.1,0.2-0.2,0.4-0.2c0.2-0.1,0.4-0.1,0.7-0.1c0.3,0,0.7,0,1.2,0
		c0.6,0,1.1,0,1.4,0c0.3,0,0.6,0,0.8,0.1c0.2,0.1,0.3,0.1,0.4,0.2c0.1,0.1,0.2,0.3,0.2,0.4L277.4,173z M268.6,158.9L268.6,158.9
		l-2.7,8.2h5.5L268.6,158.9z"/>
	<path class="st1" d="M304,173.1c0,0.2,0,0.4-0.1,0.6c-0.1,0.2-0.2,0.3-0.3,0.4c-0.1,0.1-0.3,0.2-0.5,0.3c-0.2,0.1-0.4,0.1-0.6,0.1
		h-1.7c-0.3,0-0.6,0-0.9-0.1c-0.3-0.1-0.5-0.2-0.7-0.4c-0.2-0.2-0.4-0.4-0.6-0.7c-0.2-0.3-0.4-0.7-0.7-1.2l-4.8-9
		c-0.3-0.5-0.6-1.1-0.8-1.7c-0.3-0.6-0.5-1.2-0.8-1.8h0c0,0.7,0.1,1.4,0.1,2.1s0,1.4,0,2.2v10.1c0,0.1,0,0.2-0.1,0.3
		c-0.1,0.1-0.1,0.1-0.3,0.2c-0.1,0.1-0.3,0.1-0.5,0.1s-0.5,0-0.9,0c-0.3,0-0.6,0-0.9,0s-0.4-0.1-0.5-0.1c-0.1-0.1-0.2-0.1-0.3-0.2
		c0-0.1-0.1-0.2-0.1-0.3v-17.3c0-0.5,0.1-0.8,0.4-1s0.6-0.3,1-0.3h2.1c0.4,0,0.7,0,1,0.1s0.5,0.2,0.7,0.3c0.2,0.1,0.4,0.4,0.6,0.6
		c0.2,0.3,0.4,0.6,0.6,1l3.7,7c0.2,0.4,0.4,0.8,0.6,1.3c0.2,0.4,0.4,0.8,0.6,1.2c0.2,0.4,0.4,0.8,0.6,1.2c0.2,0.4,0.4,0.8,0.5,1.2h0
		c0-0.7-0.1-1.4-0.1-2.2c0-0.8,0-1.5,0-2.2v-9c0-0.1,0-0.2,0.1-0.3c0.1-0.1,0.2-0.1,0.3-0.2c0.1-0.1,0.3-0.1,0.5-0.1
		c0.2,0,0.5,0,0.9,0c0.3,0,0.6,0,0.8,0c0.2,0,0.4,0.1,0.5,0.1c0.1,0.1,0.2,0.1,0.3,0.2c0,0.1,0.1,0.2,0.1,0.3V173.1z"/>
	<path class="st1" d="M333.6,164.6c0,1.6-0.2,3-0.6,4.3c-0.4,1.3-1,2.3-1.8,3.2c-0.8,0.9-1.8,1.5-2.9,2c-1.2,0.5-2.5,0.7-4,0.7
		c-1.5,0-2.8-0.2-3.9-0.6c-1.1-0.4-2-1-2.8-1.8c-0.7-0.8-1.3-1.8-1.7-3.1c-0.4-1.2-0.6-2.7-0.6-4.4c0-1.6,0.2-3,0.6-4.2
		s1-2.3,1.8-3.2s1.8-1.5,2.9-2c1.2-0.5,2.5-0.7,4-0.7c1.5,0,2.7,0.2,3.9,0.6c1.1,0.4,2,1,2.8,1.8c0.7,0.8,1.3,1.8,1.7,3
		C333.4,161.5,333.6,163,333.6,164.6z M329.5,164.8c0-1-0.1-1.9-0.2-2.8c-0.2-0.8-0.4-1.5-0.8-2.1c-0.4-0.6-0.9-1-1.5-1.4
		c-0.6-0.3-1.4-0.5-2.4-0.5c-1,0-1.8,0.2-2.4,0.5c-0.6,0.4-1.2,0.8-1.6,1.4c-0.4,0.6-0.7,1.3-0.8,2.1c-0.2,0.8-0.2,1.7-0.2,2.6
		c0,1.1,0.1,2,0.2,2.8c0.2,0.8,0.4,1.6,0.8,2.1c0.4,0.6,0.9,1,1.5,1.4c0.6,0.3,1.4,0.5,2.4,0.5c1,0,1.8-0.2,2.4-0.5
		c0.6-0.4,1.2-0.8,1.6-1.5c0.4-0.6,0.7-1.3,0.8-2.1C329.4,166.6,329.5,165.7,329.5,164.8z"/>
</g>
<g>
	<path class="st1" d="M141.1,196.8c0,0,0,0.1,0,0.1c0,0-0.1,0.1-0.1,0.1c-0.1,0-0.1,0-0.3,0.1c-0.1,0-0.2,0-0.4,0
		c-0.2,0-0.3,0-0.4,0s-0.2,0-0.3-0.1c-0.1,0-0.1-0.1-0.1-0.1s0-0.1,0-0.1v-6.9h0l-2.5,6.9c0,0.1,0,0.1-0.1,0.1c0,0-0.1,0.1-0.2,0.1
		c-0.1,0-0.2,0-0.3,0c-0.1,0-0.2,0-0.4,0s-0.3,0-0.4,0c-0.1,0-0.2,0-0.3-0.1c-0.1,0-0.1-0.1-0.2-0.1s-0.1-0.1-0.1-0.1l-2.4-6.9h0
		v6.9c0,0,0,0.1,0,0.1c0,0-0.1,0.1-0.1,0.1c-0.1,0-0.2,0-0.3,0.1c-0.1,0-0.2,0-0.4,0c-0.2,0-0.3,0-0.4,0s-0.2,0-0.3-0.1
		c-0.1,0-0.1-0.1-0.1-0.1c0,0,0-0.1,0-0.1v-7.6c0-0.2,0.1-0.4,0.2-0.5s0.3-0.2,0.5-0.2h1.1c0.2,0,0.4,0,0.5,0c0.1,0,0.3,0.1,0.4,0.2
		c0.1,0.1,0.2,0.2,0.3,0.3c0.1,0.1,0.1,0.3,0.2,0.5l1.8,5.1h0l1.9-5.1c0.1-0.2,0.1-0.3,0.2-0.5c0.1-0.1,0.1-0.2,0.2-0.3
		c0.1-0.1,0.2-0.1,0.3-0.2c0.1,0,0.3,0,0.4,0h1.2c0.1,0,0.2,0,0.3,0c0.1,0,0.2,0.1,0.2,0.1c0.1,0.1,0.1,0.1,0.1,0.2
		c0,0.1,0,0.2,0,0.3V196.8z"/>
	<path class="st1" d="M152.9,196.3c0.1,0.2,0.1,0.3,0.1,0.4s0,0.2-0.1,0.2c0,0-0.1,0.1-0.3,0.1c-0.1,0-0.3,0-0.5,0
		c-0.2,0-0.4,0-0.5,0c-0.1,0-0.2,0-0.3,0c-0.1,0-0.1,0-0.1-0.1s0-0.1-0.1-0.1l-0.6-1.7h-3.2l-0.5,1.7c0,0.1,0,0.1-0.1,0.2
		c0,0-0.1,0.1-0.1,0.1c-0.1,0-0.2,0-0.3,0c-0.1,0-0.3,0-0.5,0c-0.2,0-0.4,0-0.5,0s-0.2,0-0.2-0.1c0-0.1-0.1-0.1,0-0.2s0-0.2,0.1-0.4
		l2.6-7.6c0-0.1,0.1-0.1,0.1-0.2c0,0,0.1-0.1,0.2-0.1c0.1,0,0.2,0,0.3,0c0.1,0,0.3,0,0.5,0c0.3,0,0.5,0,0.6,0c0.2,0,0.3,0,0.4,0
		c0.1,0,0.1,0.1,0.2,0.1c0,0,0.1,0.1,0.1,0.2L152.9,196.3z M149,190.1L149,190.1l-1.2,3.6h2.4L149,190.1z"/>
	<path class="st1" d="M163.4,196.8c0,0,0,0.1,0,0.1c0,0-0.1,0.1-0.1,0.1c-0.1,0-0.2,0-0.3,0s-0.3,0-0.5,0c-0.2,0-0.3,0-0.4,0
		s-0.2,0-0.3,0c-0.1,0-0.1-0.1-0.1-0.1c0,0,0-0.1-0.1-0.1l-0.8-1.9c-0.1-0.2-0.2-0.4-0.3-0.6c-0.1-0.2-0.2-0.3-0.3-0.4
		c-0.1-0.1-0.2-0.2-0.4-0.3s-0.3-0.1-0.5-0.1h-0.5v3.3c0,0,0,0.1,0,0.1c0,0-0.1,0.1-0.1,0.1c-0.1,0-0.2,0-0.3,0.1s-0.3,0-0.4,0
		c-0.2,0-0.3,0-0.4,0c-0.1,0-0.2,0-0.3-0.1c-0.1,0-0.1-0.1-0.1-0.1s0-0.1,0-0.1V189c0-0.2,0-0.3,0.1-0.4c0.1-0.1,0.2-0.1,0.4-0.1
		h2.2c0.2,0,0.4,0,0.6,0c0.1,0,0.3,0,0.4,0c0.3,0,0.7,0.1,0.9,0.3c0.3,0.1,0.5,0.3,0.7,0.5c0.2,0.2,0.3,0.4,0.4,0.7
		c0.1,0.3,0.2,0.6,0.2,0.9c0,0.3,0,0.5-0.1,0.8c-0.1,0.2-0.2,0.4-0.3,0.6s-0.3,0.3-0.5,0.5s-0.4,0.2-0.7,0.3
		c0.1,0.1,0.2,0.1,0.4,0.2c0.1,0.1,0.2,0.2,0.3,0.3c0.1,0.1,0.2,0.3,0.3,0.4c0.1,0.2,0.2,0.3,0.3,0.5l0.7,1.7
		c0.1,0.2,0.1,0.3,0.1,0.4C163.4,196.7,163.4,196.7,163.4,196.8z M161.2,191c0-0.3-0.1-0.5-0.2-0.7s-0.3-0.3-0.6-0.4
		c-0.1,0-0.2,0-0.3-0.1s-0.3,0-0.5,0h-0.8v2.4h0.9c0.2,0,0.5,0,0.6-0.1c0.2-0.1,0.3-0.1,0.5-0.3c0.1-0.1,0.2-0.2,0.3-0.4
		S161.2,191.2,161.2,191z"/>
	<path class="st1" d="M169.4,196.8c0,0,0,0.1,0,0.1c0,0-0.1,0.1-0.1,0.1c-0.1,0-0.2,0-0.3,0.1s-0.3,0-0.4,0c-0.2,0-0.3,0-0.4,0
		s-0.2,0-0.3-0.1c-0.1,0-0.1-0.1-0.1-0.1c0,0,0-0.1,0-0.1v-8.1c0,0,0-0.1,0-0.1c0,0,0.1-0.1,0.1-0.1c0.1,0,0.2,0,0.3-0.1
		s0.2,0,0.4,0c0.2,0,0.3,0,0.4,0s0.2,0,0.3,0.1s0.1,0.1,0.1,0.1c0,0,0,0.1,0,0.1V196.8z"/>
	<path class="st1" d="M181.2,196.3c0.1,0.2,0.1,0.3,0.1,0.4s0,0.2-0.1,0.2c0,0-0.1,0.1-0.3,0.1c-0.1,0-0.3,0-0.5,0
		c-0.2,0-0.4,0-0.5,0c-0.1,0-0.2,0-0.3,0c-0.1,0-0.1,0-0.1-0.1s0-0.1-0.1-0.1l-0.6-1.7h-3.2l-0.5,1.7c0,0.1,0,0.1-0.1,0.2
		c0,0-0.1,0.1-0.1,0.1c-0.1,0-0.2,0-0.3,0c-0.1,0-0.3,0-0.5,0c-0.2,0-0.4,0-0.5,0s-0.2,0-0.2-0.1c0-0.1-0.1-0.1,0-0.2s0-0.2,0.1-0.4
		l2.6-7.6c0-0.1,0.1-0.1,0.1-0.2c0,0,0.1-0.1,0.2-0.1c0.1,0,0.2,0,0.3,0c0.1,0,0.3,0,0.5,0c0.3,0,0.5,0,0.6,0c0.2,0,0.3,0,0.4,0
		c0.1,0,0.1,0.1,0.2,0.1c0,0,0.1,0.1,0.1,0.2L181.2,196.3z M177.3,190.1L177.3,190.1l-1.2,3.6h2.4L177.3,190.1z"/>
	<path class="st1" d="M191.1,195.7c0,0.1,0,0.2,0,0.3c0,0.1,0,0.1,0,0.2c0,0.1,0,0.1-0.1,0.1s-0.1,0.1-0.1,0.1
		c0,0.1-0.1,0.1-0.3,0.2s-0.3,0.2-0.5,0.2c-0.2,0.1-0.4,0.1-0.7,0.2c-0.3,0-0.5,0.1-0.8,0.1c-0.6,0-1.1-0.1-1.6-0.3
		c-0.5-0.2-0.9-0.4-1.2-0.8s-0.6-0.8-0.8-1.3c-0.2-0.5-0.3-1.2-0.3-1.9c0-0.7,0.1-1.4,0.3-1.9s0.5-1,0.8-1.4
		c0.3-0.4,0.8-0.7,1.2-0.9s1-0.3,1.6-0.3c0.2,0,0.5,0,0.7,0.1c0.2,0,0.4,0.1,0.6,0.2c0.2,0.1,0.4,0.1,0.5,0.2
		c0.1,0.1,0.3,0.2,0.3,0.2c0.1,0.1,0.1,0.1,0.1,0.1s0,0.1,0.1,0.2s0,0.1,0,0.2c0,0.1,0,0.2,0,0.3c0,0.1,0,0.2,0,0.3s0,0.2,0,0.2
		s0,0.1-0.1,0.1s-0.1,0-0.1,0c-0.1,0-0.1,0-0.3-0.1c-0.1-0.1-0.2-0.2-0.4-0.3c-0.2-0.1-0.4-0.2-0.6-0.3c-0.2-0.1-0.5-0.1-0.8-0.1
		c-0.3,0-0.6,0.1-0.9,0.2c-0.3,0.1-0.5,0.3-0.7,0.6c-0.2,0.3-0.3,0.6-0.4,0.9c-0.1,0.4-0.1,0.8-0.1,1.2c0,0.5,0.1,0.9,0.2,1.3
		c0.1,0.4,0.3,0.7,0.4,0.9s0.4,0.4,0.7,0.5c0.3,0.1,0.6,0.2,0.9,0.2c0.3,0,0.6,0,0.8-0.1c0.2-0.1,0.4-0.2,0.6-0.2
		c0.2-0.1,0.3-0.2,0.4-0.2c0.1-0.1,0.2-0.1,0.2-0.1c0,0,0.1,0,0.1,0s0,0.1,0.1,0.1s0,0.1,0,0.2C191.1,195.4,191.1,195.5,191.1,195.7
		z"/>
	<path class="st1" d="M202,196.8c0,0,0,0.1,0,0.1s-0.1,0.1-0.1,0.1c-0.1,0-0.2,0-0.3,0.1c-0.1,0-0.2,0-0.4,0c-0.2,0-0.3,0-0.4,0
		c-0.1,0-0.2,0-0.3-0.1c-0.1,0-0.1-0.1-0.1-0.1c0,0,0-0.1,0-0.1v-3.4h-3.2v3.4c0,0,0,0.1,0,0.1s-0.1,0.1-0.1,0.1
		c-0.1,0-0.2,0-0.3,0.1s-0.3,0-0.4,0c-0.2,0-0.3,0-0.4,0s-0.2,0-0.3-0.1c-0.1,0-0.1-0.1-0.1-0.1c0,0,0-0.1,0-0.1v-8.1
		c0,0,0-0.1,0-0.1c0,0,0.1-0.1,0.1-0.1s0.2,0,0.3-0.1s0.3,0,0.4,0c0.2,0,0.3,0,0.4,0s0.2,0,0.3,0.1s0.1,0.1,0.1,0.1s0,0.1,0,0.1v3.1
		h3.2v-3.1c0,0,0-0.1,0-0.1c0,0,0.1-0.1,0.1-0.1c0.1,0,0.2,0,0.3-0.1c0.1,0,0.3,0,0.4,0c0.2,0,0.3,0,0.4,0c0.1,0,0.2,0,0.3,0.1
		s0.1,0.1,0.1,0.1s0,0.1,0,0.1V196.8z"/>
	<path class="st1" d="M208.6,196.8c0,0,0,0.1,0,0.1c0,0-0.1,0.1-0.1,0.1c-0.1,0-0.2,0-0.3,0.1s-0.3,0-0.4,0c-0.2,0-0.3,0-0.4,0
		s-0.2,0-0.3-0.1c-0.1,0-0.1-0.1-0.1-0.1c0,0,0-0.1,0-0.1v-8.1c0,0,0-0.1,0-0.1c0,0,0.1-0.1,0.1-0.1c0.1,0,0.2,0,0.3-0.1
		s0.2,0,0.4,0c0.2,0,0.3,0,0.4,0s0.2,0,0.3,0.1s0.1,0.1,0.1,0.1c0,0,0,0.1,0,0.1V196.8z"/>
</g>
<g>
	<line class="st2" x1="79.1" y1="192.2" x2="120.9" y2="192.2"/>
	<line class="st2" x1="221.7" y1="192.2" x2="263.6" y2="192.2"/>
</g>
<path class="st3" d="M117,12.1l-10.6,6c0.1,0.4,0.3,0.9,0.4,1.3l11.1-6.2C117.6,12.8,117.3,12.5,117,12.1z"/>
<path class="st4" d="M116.2,11.1L106,16.8c0.1,0.4,0.3,0.9,0.4,1.3l10.6-6C116.8,11.8,116.5,11.4,116.2,11.1z"/>
<path class="st5" d="M105.5,3.8c-2.3,1.3-1.1,7.4,0.5,12.9l10.2-5.7C112.4,6.8,107.8,2.5,105.5,3.8z"/>
<path class="st5" d="M112.4,24.3l0.1-0.1l0-3.6l3.1,1.9l0.1-0.1l0-3.6l3.1,1.9l0.1-0.1l0-3.6l3.1,1.9l0,0c0,0-1.9-2.6-4.4-5.6
	l-11.1,6.2c1.2,3.8,2.5,6.7,2.5,6.7l0-3.6L112.4,24.3z"/>
<path class="st6" d="M109.3,22.4l0,3.6l3.2-1.8L109.3,22.4z M109.7,23l2,1.2l-2.1,1.2L109.7,23z"/>
<path class="st6" d="M112.6,24.2l3.2-1.8l-3.1-1.9L112.6,24.2z M112.9,23.6l0-2.4l2,1.2L112.9,23.6z"/>
<path class="st6" d="M115.8,22.4l3.2-1.8l-3.1-1.9L115.8,22.4z M116.2,21.8l0-2.4l2.1,1.2L116.2,21.8z"/>
<path class="st6" d="M119.1,20.5l3.2-1.8l-3.1-1.9L119.1,20.5z M119.5,19.9l0-2.4l2,1.2L119.5,19.9z"/>
<polygon class="st4" points="119.5,19.9 121.6,18.8 119.5,17.5 "/>
<polygon class="st4" points="116.2,21.8 118.3,20.6 116.2,19.4 "/>
<polygon class="st4" points="112.9,23.6 115,22.4 113,21.2 "/>
<polygon class="st4" points="109.7,23 109.6,25.4 111.7,24.3 "/>
<polygon class="st7" points="98,37.9 95.5,39.3 98,40.8 "/>
<polygon class="st7" points="101.9,35.8 99.5,37.1 101.9,38.6 "/>
<polygon class="st7" points="105.9,33.6 103.4,35 105.8,36.4 "/>
<polygon class="st7" points="109.8,31.4 107.3,32.8 109.7,34.2 "/>
<polygon class="st7" points="113.6,29.2 111.1,30.6 113.5,32.1 "/>
<polygon class="st7" points="117.5,27.1 115,28.4 117.5,29.9 "/>
<polygon class="st7" points="121.4,24.9 118.9,26.3 121.4,27.7 "/>
<polygon class="st7" points="125.3,22.7 122.8,24.1 125.3,25.5 "/>
<polygon class="st7" points="129.1,20.6 126.6,22 129.1,23.4 "/>
<polygon class="st7" points="133,18.4 130.5,19.8 133,21.2 "/>
<polygon class="st8" points="136.9,16.2 134.4,17.6 136.9,19 "/>
<polygon class="st8" points="140.8,16.8 140.8,14 138.4,15.4 "/>
<path class="st4" d="M141.2,17.6l0.1-4.3c0,0,0,0,0,0l-3.8,2.1L141.2,17.6z M140.8,16.8l-2.5-1.5l2.5-1.4L140.8,16.8z"/>
<path class="st4" d="M137.4,15.4l-3.8,2.1l3.7,2.2L137.4,15.4z M136.9,16.2l0,2.9l-2.5-1.5L136.9,16.2z"/>
<path class="st4" d="M133.4,17.6l-3.8,2.1l3.7,2.2L133.4,17.6z M133,18.4l0,2.9l-2.5-1.5L133,18.4z"/>
<path class="st4" d="M129.5,24.2l0.1-4.3l-3.8,2.1l0,0L129.5,24.2z M129.1,20.6l0,2.9l-2.5-1.5L129.1,20.6z"/>
<path class="st4" d="M125.8,22L125.8,22L122,24l3.7,2.2L125.8,22z M125.3,22.7l0,2.9l-2.5-1.5L125.3,22.7z"/>
<path class="st4" d="M121.8,24.1l-3.8,2.1l3.7,2.2L121.8,24.1z M121.4,24.9l0,2.9l-2.5-1.5L121.4,24.9z"/>
<path class="st4" d="M117.9,26.3l-3.8,2.1l3.7,2.2L117.9,26.3z M117.5,27.1l0,2.9l-2.5-1.5L117.5,27.1z"/>
<path class="st4" d="M114,28.5l-3.8,2.1l3.7,2.2L114,28.5z M113.6,29.2l0,2.9l-2.5-1.5L113.6,29.2z"/>
<path class="st4" d="M110.2,30.6l-3.8,2.1l3.7,2.2L110.2,30.6z M109.8,31.4l0,2.9l-2.5-1.5L109.8,31.4z"/>
<path class="st4" d="M106.3,32.8l-3.8,2.1l3.7,2.2L106.3,32.8z M105.9,33.6l0,2.9l-2.5-1.5L105.9,33.6z"/>
<path class="st4" d="M102.4,35l-3.8,2.1l3.7,2.2L102.4,35z M101.9,35.8l0,2.9l-2.5-1.5L101.9,35.8z"/>
<path class="st4" d="M98.5,37.2l-3.8,2.1l3.7,2.2L98.5,37.2z M98,37.9l0,2.9l-2.5-1.5L98,37.9z"/>
<path class="st6" d="M94.6,39.3L94.6,39.3l3.8-2.1l0.1-0.1l3.8-2.1l0.1-0.1l3.8-2.1l0.1-0.1l3.8-2.1l3.8-2.1l0.1-0.1l3.8-2.1
	l0.1-0.1l3.8-2.1L122,24l3.8-2.1l0,0l3.8-2.1l0.1-0.1l3.8-2.1l0.1-0.1l3.8-2.1l0.1-0.1l3.8-2.1c-0.1-0.4-0.3-0.7-0.4-1.1L94,38.4
	C94.2,38.7,94.4,39,94.6,39.3z"/>
<path class="st3" d="M122.3,18.8L122.3,18.8l-3.2,1.8l-0.1,0.1l-3.2,1.8l-0.1,0.1l-3.2,1.8l-0.1,0.1l-3.2,1.8l-17,9.5l1.2,2.1
	c0.1,0.3,0.3,0.5,0.4,0.7l46.9-26.2c-0.1-0.3-0.2-0.5-0.4-0.8l-1.2-2.1L122.3,18.8z"/>
<path class="st9" d="M137.5,15.4l-0.1,0.1l-0.1,4.3l-3.7-2.2l-0.1,0.1l-0.1,4.3l-3.7-2.2l-0.1,0.1l-0.1,4.3l-3.7-2.2l-0.1,4.3
	L122,24l-0.1,0.1l-0.1,4.3l-3.7-2.2l-0.1,0.1l-0.1,4.3l-3.7-2.2l-0.1,0.1l-0.1,4.3l-3.7-2.2l-0.1,4.3l-3.7-2.2l-0.1,0.1l-0.1,4.3
	l-3.7-2.2l-0.1,0.1l-0.1,4.3l-3.7-2.2l-0.1,0.1l-0.1,4.3l-3.7-2.2l0,0c3.3,3.9,8.9,5,13.5,2.5L136.3,26c4.6-2.6,6.6-8,5-12.8
	l-0.1,4.3L137.5,15.4z"/>
<path class="st10" d="M117,12.1l-2.7,1.5c0.3,0.3,0.7,0.6,1,1l2.6-1.5C117.6,12.8,117.3,12.5,117,12.1z"/>
<path class="st11" d="M116.2,11.1l-2.9,1.6c0.4,0.3,0.7,0.6,1.1,0.9l2.7-1.5C116.8,11.8,116.5,11.4,116.2,11.1z"/>
<path class="st12" d="M105.5,3.8c-1.2,0.7-1.5,2.7-1.2,5.2c3.3,0.4,6.4,1.7,9,3.6l2.9-1.6C112.4,6.8,107.8,2.5,105.5,3.8z"/>
<path class="st12" d="M117.9,13.1l-2.6,1.5c0,0,0,0,0,0c1.5,1.4,2.2,3.3,2.3,5.2l1.3,0.8l0.1-0.1l0-3.6l3.1,1.9l0,0
	C122.3,18.8,120.4,16.2,117.9,13.1z"/>
<path class="st13" d="M112.6,20.6l0,3.6l3.2-1.8L112.6,20.6z M113,21.2l2,1.2l-2.1,1.2L113,21.2z"/>
<path class="st13" d="M117.7,19.8c0,0.1,0,0.3,0,0.4l0.6,0.3l-0.6,0.3c0,0.1,0,0.3,0,0.4l1.3-0.7L117.7,19.8z"/>
<path class="st13" d="M119.1,20.5l3.2-1.8l-3.1-1.9L119.1,20.5z M119.5,19.9l0-2.4l2,1.2L119.5,19.9z"/>
<polygon class="st11" points="119.5,19.9 121.6,18.8 119.5,17.5 "/>
<path class="st11" d="M117.7,20.2c0,0.2,0,0.4,0,0.7l0.6-0.3L117.7,20.2z"/>
<polygon class="st11" points="113,21.2 112.9,23.6 115,22.4 "/>
<polygon class="st14" points="136.9,16.2 134.4,17.6 136.9,19 "/>
<polygon class="st14" points="140.8,16.8 140.8,14 138.4,15.4 "/>
<path class="st11" d="M141.2,17.6l0.1-4.3c0,0,0,0,0,0l-3.8,2.1L141.2,17.6z M140.8,16.8l-2.5-1.5l2.5-1.4L140.8,16.8z"/>
<path class="st11" d="M137.4,15.4l-3.8,2.1l3.7,2.2L137.4,15.4z M136.9,16.2l0,2.9l-2.5-1.5L136.9,16.2z"/>
<path class="st11" d="M133,17.9c0.2,0.3,0.3,0.6,0.4,0.8l0-1.1L133,17.9z"/>
<path class="st13" d="M132.4,16.9c0.2,0.3,0.4,0.6,0.6,1l0.5-0.3l0.1-0.1l3.8-2.1l0.1-0.1l3.8-2.1c-0.1-0.4-0.3-0.7-0.4-1.1
	L132.4,16.9z"/>
<path class="st7" d="M130.4,14.2c0.7,0.9,1.4,1.7,2,2.7l8.5-4.7c-0.1-0.3-0.2-0.5-0.4-0.8l-1.2-2.1L130.4,14.2L130.4,14.2z"/>
<path class="st15" d="M141.2,17.6l-3.7-2.2l-0.1,0.1l-0.1,4.3l-3.7-2.2l-0.1,0.1l0,1.1c0,0.1,0.1,0.1,0.1,0.2c1.4,3,1.2,6.1-0.1,8.8
	l2.9-1.6c4.6-2.6,6.6-8,5-12.8L141.2,17.6z"/>
</svg>
